<?xml version="1.0" encoding="utf-8"?>
<!-- Generator: Adobe Illustrator 23.1.0, SVG Export Plug-In . SVG Version: 6.00 Build 0)  -->
<svg version="1.1" id="Layer_1" xmlns="http://www.w3.org/2000/svg" xmlns:xlink="http://www.w3.org/1999/xlink" x="0px" y="0px"
	 viewBox="0 0 121 121" style="enable-background:new 0 0 121 121;" xml:space="preserve">
<g>
	<path d="M60.4,1C27.5,1,0.8,27.7,0.8,60.6s26.7,59.6,59.6,59.6S120,93.5,120,60.6S93.3,1,60.4,1z M97.6,97.8
		c-4.8,4.8-10.5,8.6-16.7,11.3c-6.5,2.7-13.4,4.1-20.5,4.1c-7.1,0-14-1.4-20.5-4.1c-6.3-2.7-11.9-6.5-16.7-11.3
		c-4.8-4.8-8.6-10.5-11.3-16.7c-2.7-6.5-4.1-13.4-4.1-20.5s1.4-14,4.1-20.5c2.7-6.3,6.5-11.9,11.3-16.7c4.9-4.8,10.5-8.6,16.7-11.3
		C46.4,9.4,53.3,8,60.4,8s14,1.4,20.5,4.1c6.3,2.7,11.9,6.5,16.7,11.3c4.8,4.8,8.6,10.5,11.3,16.7c2.7,6.5,4.1,13.4,4.1,20.5
		c0,7.1-1.4,14-4.1,20.5C106.2,87.3,102.4,93,97.6,97.8z"/>
	<rect x="32.1" y="48.3" width="11.6" height="37.2"/>
	<path d="M37.7,30.8c-4.3,0-7.1,2.8-7.1,6.5c0,3.6,2.7,6.5,6.9,6.5h0.1c4.4,0,7.1-2.9,7.1-6.5C44.6,33.6,42,30.8,37.7,30.8z"/>
	<path d="M75.5,48c-6.7,0-10.8,3.6-11.6,6.2v-5.8H50.8c0.2,3.1,0,37.2,0,37.2h13.1V65.4c0-1.1,0-2.3,0.3-3.1
		c0.9-2.2,2.8-4.6,6.3-4.6c4.5,0,6.6,3.4,6.6,8.5v19.2h13.2V64.9C90.2,53.4,83.7,48,75.5,48z"/>
</g>
</svg>
